<svg width="24" height="24" viewBox="0 0 24 24" fill="none" xmlns="http://www.w3.org/2000/svg">
<path fill-rule="evenodd" clip-rule="evenodd" d="M12.3463 7.50716C12.6184 7.19494 13.0922 7.16249 13.4044 7.43468L17.9927 11.4347C18.156 11.5771 18.2498 11.7833 18.2498 12C18.2498 12.2168 18.156 12.4229 17.9927 12.5653L13.4044 16.5653C13.0922 16.8375 12.6184 16.8051 12.3463 16.4929C12.0741 16.1806 12.1065 15.7069 12.4187 15.4347L15.4982 12.75H6.49982C6.0856 12.75 5.74982 12.4142 5.74982 12C5.74982 11.5858 6.0856 11.25 6.49982 11.25H15.4982L12.4187 8.56534C12.1065 8.29315 12.0741 7.81938 12.3463 7.50716Z" fill="white"/>
</svg>
