<svg width="20" height="20" viewBox="0 0 20 20" xmlns="http://www.w3.org/2000/svg">
<path fill-rule="evenodd" clip-rule="evenodd" d="M10.289 6.25605C10.5158 5.99586 10.9107 5.96882 11.1708 6.19565L14.9944 9.52898C15.1305 9.64768 15.2087 9.81947 15.2087 10.0001C15.2087 10.1807 15.1305 10.3525 14.9944 10.4712L11.1708 13.8045C10.9107 14.0314 10.5158 14.0043 10.289 13.7441C10.0622 13.4839 10.0892 13.0891 10.3494 12.8623L12.9156 10.6251H5.41699C5.07181 10.6251 4.79199 10.3453 4.79199 10.0001C4.79199 9.65491 5.07181 9.37509 5.41699 9.37509H12.9156L10.3494 7.13787C10.0892 6.91104 10.0622 6.51623 10.289 6.25605Z"/>
</svg>
