<svg width="72" height="72" viewBox="0 0 72 72" fill="none" xmlns="http://www.w3.org/2000/svg">
<g opacity="0.5">
<path opacity="0.4" d="M38.3832 46.0854C38.1823 46.207 37.9548 46.2805 37.7196 46.2924L30.1386 46.676C27.9869 46.7839 26.1359 46.5639 24.478 46.006C20.8502 44.787 17.8059 42.2465 15.908 38.8488L9.65702 27.6682C8.93533 26.378 9.09712 24.7301 10.0552 23.5666L18.6384 13.1749C19.145 12.5522 19.8538 12.1188 20.6286 11.9552L33.4753 9.20362C34.9122 8.89361 36.3634 9.55452 37.0825 10.8441L43.338 22.033C45.2349 25.4247 45.8619 29.4455 45.1052 33.355C44.7578 35.1483 44.0338 36.9462 42.8942 38.8519L38.8783 45.5802C38.7543 45.7901 38.5833 45.9621 38.3832 46.0854Z" fill="#268EEC"/>
<g filter="url(#filter0_f_19_4589)">
<path d="M35.0303 39.4239C34.894 39.5063 34.7421 39.5603 34.5871 39.5768L29.5952 40.1081C28.1784 40.2583 26.9707 40.1956 25.9018 39.9179C23.5628 39.3115 21.654 37.8713 20.5284 35.8603L16.8209 29.2431C16.3928 28.4795 16.5576 27.4619 17.2281 26.7105L23.2339 19.9983C23.5887 19.5964 24.0696 19.3028 24.5842 19.1721L33.1182 16.9821C34.0728 16.7357 35.0023 17.0847 35.4287 17.848L39.1389 24.4701C40.264 26.4775 40.5328 28.9205 39.897 31.3491C39.6051 32.4632 39.0658 33.5948 38.2497 34.8087L35.3734 39.0945C35.2845 39.2282 35.1661 39.3404 35.0303 39.4239Z" fill="#272933"/>
</g>
</g>
<g filter="url(#filter1_b_19_4589)">
<mask id="path-3-outside-1_19_4589" maskUnits="userSpaceOnUse" x="20.1848" y="9.4671" width="52.2438" height="61.1294" fill="black">
<rect fill="white" x="20.1848" y="9.4671" width="52.2438" height="61.1294"/>
<path d="M42.5264 65.3944C42.2212 65.3413 41.9269 65.2156 41.6734 65.02L33.5043 58.7152C31.1865 56.9248 29.4414 55.0643 28.1649 53.0285C25.3707 48.5757 24.2321 43.2855 24.9641 38.1305L27.3671 21.1626C27.6441 19.2042 29.1218 17.6601 31.0404 17.3155L48.2045 14.2603C49.225 14.0704 50.3048 14.253 51.2385 14.7699L66.7522 23.3026C68.4892 24.2547 69.4692 26.2133 69.1901 28.1687L66.7853 45.1492C66.0569 50.2971 63.5112 54.9671 59.6186 58.3007C57.8327 59.8297 55.6526 61.0306 52.9557 61.9747L43.4415 65.3146C43.146 65.42 42.8318 65.445 42.5264 65.3944Z"/>
</mask>
<path d="M42.5264 65.3944C42.2212 65.3413 41.9269 65.2156 41.6734 65.02L33.5043 58.7152C31.1865 56.9248 29.4414 55.0643 28.1649 53.0285C25.3707 48.5757 24.2321 43.2855 24.9641 38.1305L27.3671 21.1626C27.6441 19.2042 29.1218 17.6601 31.0404 17.3155L48.2045 14.2603C49.225 14.0704 50.3048 14.253 51.2385 14.7699L66.7522 23.3026C68.4892 24.2547 69.4692 26.2133 69.1901 28.1687L66.7853 45.1492C66.0569 50.2971 63.5112 54.9671 59.6186 58.3007C57.8327 59.8297 55.6526 61.0306 52.9557 61.9747L43.4415 65.3146C43.146 65.42 42.8318 65.445 42.5264 65.3944Z" fill="#1C1E28" fill-opacity="0.17"/>
<path d="M42.38 66.3836C42.9242 66.4783 43.4309 66.1121 43.5117 65.5658C43.5926 65.0194 43.2169 64.4998 42.6727 64.4052L42.38 66.3836ZM41.6734 65.02L42.267 64.2284L42.2669 64.2284L41.6734 65.02ZM33.5043 58.7152L32.9104 59.5066L32.9107 59.5069L33.5043 58.7152ZM28.1649 53.0285L29.0034 52.507L29.0032 52.5066L28.1649 53.0285ZM24.9641 38.1305L25.9503 38.2961L25.9504 38.2958L24.9641 38.1305ZM27.3671 21.1626L28.3534 21.3278L28.3534 21.3276L27.3671 21.1626ZM31.0404 17.3155L30.8443 16.3267L30.8428 16.327L31.0404 17.3155ZM48.2045 14.2603L48.4007 15.2491L48.4082 15.2477L48.2045 14.2603ZM51.2385 14.7699L50.7752 15.6472L50.7777 15.6486L51.2385 14.7699ZM66.7522 23.3026L66.2914 24.1812L66.2927 24.1819L66.7522 23.3026ZM69.1901 28.1687L68.204 28.0024L68.2039 28.0035L69.1901 28.1687ZM66.7853 45.1492L65.799 44.9839L65.799 44.9841L66.7853 45.1492ZM59.6186 58.3007L60.2742 59.0724L60.2743 59.0723L59.6186 58.3007ZM52.9557 61.9747L52.6087 61.0254L52.6079 61.0257L52.9557 61.9747ZM43.4415 65.3146L43.0937 64.3656L43.0892 64.3672L43.4415 65.3146ZM42.6646 64.4038C42.1198 64.3136 41.6162 64.6841 41.5398 65.2311C41.4634 65.7782 41.8432 66.2948 42.3881 66.385L42.6646 64.4038ZM42.6727 64.4052C42.5227 64.3791 42.3834 64.3182 42.267 64.2284L41.0797 65.8116C41.4703 66.113 41.9197 66.3036 42.38 66.3836L42.6727 64.4052ZM42.2669 64.2284L34.0979 57.9236L32.9107 59.5069L41.0798 65.8116L42.2669 64.2284ZM34.0982 57.9239C31.8568 56.1924 30.2025 54.4194 29.0034 52.507L27.3264 53.55C28.6803 55.7093 30.5162 57.6571 32.9104 59.5066L34.0982 57.9239ZM29.0032 52.5066C26.3383 48.2599 25.252 43.2138 25.9503 38.2961L23.9779 37.9649C23.2122 43.3572 24.4031 48.8915 27.3266 53.5504L29.0032 52.5066ZM25.9504 38.2958L28.3534 21.3278L26.3808 20.9973L23.9778 37.9653L25.9504 38.2958ZM28.3534 21.3276C28.5713 19.7867 29.7347 18.5741 31.238 18.304L30.8428 16.327C28.5089 16.7462 26.7168 18.6217 26.3808 20.9975L28.3534 21.3276ZM31.2365 18.3043L48.4007 15.2491L48.0084 13.2715L30.8443 16.3267L31.2365 18.3043ZM48.4082 15.2477C49.1981 15.1007 50.0424 15.2415 50.7752 15.6472L51.7018 13.8927C50.5672 13.2645 49.2519 13.04 48.0009 13.2729L48.4082 15.2477ZM50.7777 15.6486L66.2914 24.1812L67.213 22.424L51.6994 13.8913L50.7777 15.6486ZM66.2927 24.1819C67.6509 24.9264 68.4236 26.4638 68.204 28.0024L70.1762 28.335C70.5148 25.9627 69.3275 23.5829 67.2117 22.4232L66.2927 24.1819ZM68.2039 28.0035L65.799 44.9839L67.7715 45.3145L70.1764 28.334L68.2039 28.0035ZM65.799 44.9841C65.1041 49.8949 62.6756 54.3496 58.963 57.5291L60.2743 59.0723C64.3467 55.5846 67.0096 50.6993 67.7716 45.3143L65.799 44.9841ZM58.9631 57.529C57.2854 58.9654 55.2163 60.1126 52.6087 61.0254L53.3027 62.9239C56.0888 61.9486 58.38 60.694 60.2742 59.0724L58.9631 57.529ZM52.6079 61.0257L43.0937 64.3657L43.7892 66.2636L53.3035 62.9236L52.6079 61.0257ZM43.0892 64.3672C42.9536 64.4156 42.8084 64.4276 42.6646 64.4038L42.3881 66.385C42.8553 66.4623 43.3384 66.4243 43.7937 66.262L43.0892 64.3672Z" fill="url(#paint0_linear_19_4589)" mask="url(#path-3-outside-1_19_4589)"/>
</g>
<g filter="url(#filter2_bd_19_4589)">
<path d="M42.5576 49.2649L44.8735 33.6158L38.1159 38.7109C37.2964 39.3016 36.1781 39.1074 35.57 38.2687C34.9858 37.4341 35.1609 36.2512 35.9566 35.6564L46.254 27.9153C47.0223 27.341 48.2119 27.5477 48.776 28.3534L56.3235 39.1942C56.9078 40.0287 56.7327 41.2116 55.9369 41.8065C55.529 42.0895 55.0454 42.2077 54.5957 42.1296C54.1436 42.0511 53.6969 41.7713 53.4149 41.3684L48.4424 34.2358L46.1266 49.8849C45.9734 50.9199 45.0679 51.5968 44.0686 51.4232C43.0931 51.2538 42.4045 50.3 42.5576 49.2649Z" fill="#268EEC"/>
<path d="M45.0084 33.3873L44.972 33.6329L42.6562 49.2821C42.5108 50.2646 43.1642 51.1647 44.0832 51.3243C45.0252 51.4879 45.8825 50.8511 46.0281 49.8678L48.3439 34.2186L48.3801 33.9737L48.5235 34.1794L53.4958 41.3118L45.0084 33.3873ZM45.0084 33.3873L44.8126 33.5349M45.0084 33.3873L44.8126 33.5349M44.8126 33.5349L38.0559 38.6294M44.8126 33.5349L38.0559 38.6294M38.0559 38.6294C37.2808 39.1874 36.2257 39.004 35.6505 38.2114C35.0982 37.4217 35.2644 36.3002 36.0172 35.7375L36.0174 35.7374L46.3145 27.9965C46.3146 27.9964 46.3146 27.9964 46.3147 27.9963C47.0383 27.4556 48.1636 27.6511 48.695 28.4098C48.695 28.4099 48.695 28.4099 48.6951 28.41L56.2424 39.2505L56.2426 39.2507C56.7951 40.04 56.6296 41.1611 55.8777 41.7243C55.4884 41.9939 55.031 42.1037 54.6103 42.0307C54.1851 41.9568 53.7623 41.6924 53.4959 41.312L38.0559 38.6294Z" stroke="#268EEC" stroke-width="0.2"/>
</g>
<defs>
<filter id="filter0_f_19_4589" x="0.584961" y="0.904053" width="55.6494" height="55.2834" filterUnits="userSpaceOnUse" color-interpolation-filters="sRGB">
<feFlood flood-opacity="0" result="BackgroundImageFix"/>
<feBlend mode="normal" in="SourceGraphic" in2="BackgroundImageFix" result="shape"/>
<feGaussianBlur stdDeviation="8" result="effect1_foregroundBlur_19_4589"/>
</filter>
<filter id="filter1_b_19_4589" x="-0.248535" y="-10.8169" width="94.4819" height="101.24" filterUnits="userSpaceOnUse" color-interpolation-filters="sRGB">
<feFlood flood-opacity="0" result="BackgroundImageFix"/>
<feGaussianBlur in="BackgroundImageFix" stdDeviation="12"/>
<feComposite in2="SourceAlpha" operator="in" result="effect1_backgroundBlur_19_4589"/>
<feBlend mode="normal" in="SourceGraphic" in2="effect1_backgroundBlur_19_4589" result="shape"/>
</filter>
<filter id="filter2_bd_19_4589" x="20.2246" y="12.5889" width="51.4443" height="53.8616" filterUnits="userSpaceOnUse" color-interpolation-filters="sRGB">
<feFlood flood-opacity="0" result="BackgroundImageFix"/>
<feGaussianBlur in="BackgroundImageFix" stdDeviation="7.5"/>
<feComposite in2="SourceAlpha" operator="in" result="effect1_backgroundBlur_19_4589"/>
<feColorMatrix in="SourceAlpha" type="matrix" values="0 0 0 0 0 0 0 0 0 0 0 0 0 0 0 0 0 0 127 0" result="hardAlpha"/>
<feOffset dx="5" dy="5"/>
<feGaussianBlur stdDeviation="5"/>
<feColorMatrix type="matrix" values="0 0 0 0 0.00761719 0 0 0 0 0.00761719 0 0 0 0 0.00761719 0 0 0 0.5 0"/>
<feBlend mode="normal" in2="effect1_backgroundBlur_19_4589" result="effect2_dropShadow_19_4589"/>
<feBlend mode="normal" in="SourceGraphic" in2="effect2_dropShadow_19_4589" result="shape"/>
</filter>
<linearGradient id="paint0_linear_19_4589" x1="28.9253" y1="10.6277" x2="71.7911" y2="17.7674" gradientUnits="userSpaceOnUse">
<stop stop-color="#5484FF"/>
<stop offset="1" stop-color="#0CC3CF"/>
</linearGradient>
</defs>
</svg>
