<svg width="22" height="20" viewBox="0 0 22 20" fill="none" xmlns="http://www.w3.org/2000/svg">
<path d="M5.62998 3.40695C6.19049 2.24536 6.99088 1.29825 8.15597 0.681307C8.7997 0.339095 9.48505 0.13425 10.212 0.0450816C10.6061 -0.00311709 11.0051 -0.0175738 11.3918 0.0258051C12.4492 0.141483 13.4184 0.500561 14.2776 1.1392C15.051 1.71758 15.592 2.47189 16.0472 3.2985C16.0889 3.37321 16.1672 3.52503 16.1672 3.52503L13.5335 5.04812C13.5335 5.04812 13.2422 4.583 13.11 4.342C12.5544 3.3467 11.3306 2.78759 10.1337 3.14426C9.07874 3.45996 8.37626 4.35887 8.29059 5.3831C8.24408 5.93015 8.38605 6.43142 8.66508 6.90618C10.0872 9.33298 11.5093 11.7598 12.9314 14.1842C13.044 14.3746 13.044 14.377 12.8212 14.377C11.7614 14.377 10.6991 14.3746 9.63925 14.3794C9.52421 14.3794 9.46547 14.3457 9.40917 14.2493C8.90006 13.372 8.38605 12.4948 7.87204 11.62C7.2846 10.6199 6.69716 9.62218 6.10972 8.62446C6.06566 8.54493 6.0216 8.463 5.9751 8.38347C5.21632 7.07246 5.01561 5.68434 5.38276 4.21669C5.44395 3.97328 5.52473 3.7347 5.59571 3.49371L5.59326 3.49611C5.62998 3.47683 5.62753 3.44069 5.62998 3.40695Z" fill="url(#paint0_linear_19_4256)"/>
<path d="M5.62958 3.39241C5.62668 3.43226 5.62668 3.47495 5.58029 3.49487C5.57739 3.45218 5.59478 3.41803 5.62958 3.39241Z" fill="#111111"/>
<path d="M0.0955796 15.438C0.379509 16.8912 1.12115 18.06 2.3254 18.9396C3.23593 19.6048 4.48179 19.9373 5.61016 19.9976C6.19026 19.9952 6.55741 19.9928 7.13751 19.9904C7.20604 19.9904 7.27702 19.9855 7.34556 19.9831C7.50955 19.9831 7.6711 19.9831 7.83509 19.9831C8.04559 19.9831 8.25609 19.9831 8.46414 19.9831C8.6624 19.9831 8.86066 19.9831 9.05892 19.9831C9.09074 19.9879 9.12501 19.9928 9.15683 19.9976C9.22781 19.9976 9.30124 19.9976 9.37222 19.9976C9.38201 19.9976 9.39425 19.9976 9.40405 19.9976C9.453 19.9928 9.49951 19.9904 9.54846 19.9855C9.85197 19.9855 10.1555 19.9855 10.459 19.9855C10.9118 19.9855 11.3671 19.9855 11.8199 19.9855C12.0279 19.9928 12.2384 19.9952 12.4465 20C12.7133 19.9976 12.9801 19.9904 13.2469 19.9904C14.2749 19.9904 15.3029 19.9928 16.3309 19.9952C16.725 19.9687 17.1166 19.9181 17.5009 19.8193C20.2839 19.1035 22.0071 16.4718 21.6742 13.739C21.5934 13.0714 21.3829 12.4256 21.0427 11.8351C20.585 11.0398 20.1175 10.2518 19.6524 9.46134C19.2828 8.83475 18.9108 8.20817 18.5412 7.584C18.3258 7.17431 18.0859 6.77667 17.8362 6.38626C17.6453 6.0561 17.452 5.72352 17.261 5.39336C17.1827 5.42469 17.1068 5.45843 17.031 5.49699C17.1044 5.45843 17.1827 5.42469 17.261 5.39336C17.1729 5.24395 17.0873 5.09212 16.9991 4.9427C16.8914 4.75955 16.7813 4.57639 16.6736 4.39565C16.5047 4.10887 16.3334 3.81967 16.1645 3.53289C16.1106 3.55217 16.0519 3.56422 16.0029 3.59314C15.2148 4.03898 14.4267 4.48481 13.641 4.93306C13.592 4.96198 13.5406 4.99331 13.5308 5.05597C13.6777 5.34034 13.8392 5.6199 14.0179 5.88499C14.0693 5.83438 14.1231 5.78859 14.1794 5.75003C14.1207 5.791 14.0668 5.83438 14.0179 5.88499C14.0987 6.06332 14.2039 6.22961 14.3092 6.39349C14.4071 6.56459 14.4903 6.74775 14.6176 6.90198C14.7791 7.23937 14.9847 7.55267 15.1781 7.87319C15.2197 7.8756 15.2589 7.86837 15.298 7.85632C15.2613 7.86837 15.2221 7.8756 15.1781 7.87319C15.4106 8.29252 15.6505 8.70944 15.9075 9.11431C16.2795 9.75776 16.6516 10.4036 17.0261 11.0447C17.4446 11.7628 17.8681 12.4762 18.2866 13.1943C18.5534 13.6498 18.6954 14.1463 18.6317 14.6692C18.4947 15.8043 17.7212 16.696 16.5757 16.9297C16.468 16.9514 16.3579 16.9562 16.2477 16.9707C16.1841 17.0117 16.1106 16.9924 16.0421 16.9924C14.7032 16.9948 13.3619 16.9948 12.023 16.9948C11.9545 16.9948 11.8835 16.9996 11.815 17.002C11.6632 16.9803 11.5066 17.0189 11.3573 16.9803C11.3255 16.9803 11.2961 16.9803 11.2643 16.9803C11.0856 17.0093 10.9045 17.0069 10.7258 16.9828C10.6352 16.9852 10.5471 16.99 10.4565 16.9924C10.4345 16.9876 10.4125 16.9852 10.3905 16.9803C10.1114 17.0213 9.82749 16.9828 9.54846 17.0044C9.38446 17.0044 9.22047 17.0044 9.05648 17.002C8.85822 17.002 8.65995 17.002 8.46169 17.002C8.25119 17.002 8.04314 17.002 7.83264 16.9996C7.66865 16.9996 7.50711 16.9996 7.34311 16.9996C6.78504 16.9972 6.22453 16.9924 5.66646 16.9876C5.60282 16.9876 5.53918 17.0044 5.47799 16.9707C4.27864 16.8791 3.32649 16.0549 3.116 14.8982C3.01075 14.3198 3.09152 13.751 3.39258 13.2329C4.28598 11.7026 5.18427 10.1771 6.08012 8.64678C6.08501 8.63714 6.0948 8.62991 6.10215 8.62268C6.05809 8.54315 6.01403 8.46121 5.96753 8.38168C5.20875 7.07068 5.00804 5.68255 5.37519 4.2149C5.43638 3.9715 5.51716 3.73291 5.58814 3.49192C5.53184 3.5112 5.52205 3.56904 5.49757 3.61242C3.90904 6.30914 2.32051 9.00827 0.736869 11.7074C0.25223 12.534 0.0172526 13.4329 0.000118755 14.3848C-0.0023284 14.7343 0.0294919 15.0885 0.0955796 15.438Z" fill="url(#paint1_linear_19_4256)"/>
<defs>
<linearGradient id="paint0_linear_19_4256" x1="15.5002" y1="3.92962" x2="8.18698" y2="17.7819" gradientUnits="userSpaceOnUse">
<stop stop-color="#0274FB"/>
<stop offset="1" stop-color="#1BC1FC"/>
</linearGradient>
<linearGradient id="paint1_linear_19_4256" x1="15.6262" y1="4.33379" x2="6.94512" y2="12.1273" gradientUnits="userSpaceOnUse">
<stop stop-color="#0074FD"/>
<stop offset="1" stop-color="#8CC8FF"/>
</linearGradient>
</defs>
</svg>
